<?xml version="1.0" encoding="UTF-8"?>
<svg width="29px" height="29px" viewBox="0 0 29 29" version="1.1" xmlns="http://www.w3.org/2000/svg" xmlns:xlink="http://www.w3.org/1999/xlink">

    <g id="Page-1" stroke="none" stroke-width="1" fill="none" fill-rule="evenodd">
        <path d="M16.2852814,12.6852814 L31.4852814,12.6852814 C32.0375661,12.6852814 32.4852814,13.1329966 32.4852814,13.6852814 L32.4852814,15.2852814 C32.4852814,15.8375661 32.0375661,16.2852814 31.4852814,16.2852814 L16.2852814,16.2852814 L16.2852814,31.4852814 C16.2852814,32.0375661 15.8375661,32.4852814 15.2852814,32.4852814 L13.6852814,32.4852814 C13.1329966,32.4852814 12.6852814,32.0375661 12.6852814,31.4852814 L12.6852814,16.2852814 L-2.51471863,16.2852814 C-3.06700338,16.2852814 -3.51471863,15.8375661 -3.51471863,15.2852814 L-3.51471863,13.6852814 C-3.51471863,13.1329966 -3.06700338,12.6852814 -2.51471863,12.6852814 L12.6852814,12.6852814 L12.6852814,-2.51471863 C12.6852814,-3.06700338 13.1329966,-3.51471863 13.6852814,-3.51471863 L15.2852814,-3.51471863 C15.8375661,-3.51471863 16.2852814,-3.06700338 16.2852814,-2.51471863 L16.2852814,12.6852814 Z" id="Combined-Shape" fill="#D75E34" transform="translate(14.485281, 14.485281) rotate(45.000000) translate(-14.485281, -14.485281) "></path>
    </g>
</svg>