<?xml version="1.0" encoding="UTF-8"?>
<svg width="12px" height="17px" viewBox="0 0 12 17" version="1.1" xmlns="http://www.w3.org/2000/svg" xmlns:xlink="http://www.w3.org/1999/xlink">
   
    <g id="Page-1" stroke="none" stroke-width="1" fill="none" fill-rule="evenodd">
        <g id="worker---4.job-(pending)" transform="translate(-312.000000, -525.000000)" fill="#95959B" fill-rule="nonzero">
            <g id="maps-and-flags" transform="translate(312.000000, 525.000000)">
                <path d="M6,0 C2.70177419,0 0.018483871,2.68329032 0.018483871,5.98148387 C0.018483871,10.0746452 5.37135484,16.0836452 5.59925806,16.3374516 C5.81332258,16.575871 6.18706452,16.5754516 6.40074194,16.3374516 C6.62864516,16.0836452 11.9815161,10.0746452 11.9815161,5.98148387 C11.9814516,2.68329032 9.29819355,0 6,0 Z M6,8.99093548 C4.34058065,8.99093548 2.99058065,7.64090323 2.99058065,5.98148387 C2.99058065,4.32206452 4.3406129,2.97206452 6,2.97206452 C7.6593871,2.97206452 9.0093871,4.32209677 9.0093871,5.98151613 C9.0093871,7.64093548 7.6593871,8.99093548 6,8.99093548 Z" id="Shape"></path>
            </g>
        </g>
    </g>
</svg>