<?xml version="1.0" encoding="UTF-8"?>
<svg width="17px" height="17px" viewBox="0 0 17 17" version="1.1" xmlns="http://www.w3.org/2000/svg" xmlns:xlink="http://www.w3.org/1999/xlink">
    
    <g id="Page-1" stroke="none" stroke-width="1" fill="none" fill-rule="evenodd">
        <g id="worker---0.main" transform="translate(-307.000000, -212.000000)" fill="#939393">
            <g id="note-rounded-square-interface-symbol" transform="translate(307.000000, 212.000000)">
                <path d="M14.1666667,0 L2.83333333,0 C1.27075,0 0,1.27075 0,2.83333333 L0,14.1666667 C0,15.72925 1.27075,17 2.83333333,17 L14.1666667,17 C15.72925,17 17,15.72925 17,14.1666667 L17,2.83333333 C17,1.27075 15.72925,0 14.1666667,0 Z M15.5833333,14.1666667 C15.5833333,14.9486667 14.9486667,15.5833333 14.1666667,15.5833333 L2.83333333,15.5833333 C2.05204167,15.5833333 1.41666667,14.9486667 1.41666667,14.1666667 L1.41666667,2.83333333 C1.41666667,2.05204167 2.05204167,1.41666667 2.83333333,1.41666667 L14.1666667,1.41666667 C14.9486667,1.41666667 15.5833333,2.05204167 15.5833333,2.83333333 L15.5833333,14.1666667 Z" id="Shape" fill-rule="nonzero"></path>
                <path d="M13.1041667,4.95833333 L3.89583333,4.95833333 C3.50483333,4.95833333 3.1875,5.27566667 3.1875,5.66666667 C3.1875,6.05766667 3.50483333,6.375 3.89583333,6.375 L13.1041667,6.375 C13.4951667,6.375 13.8125,6.05766667 13.8125,5.66666667 C13.8125,5.27566667 13.4951667,4.95833333 13.1041667,4.95833333 Z" id="Path"></path>
                <path d="M13.1041667,7.79166667 L3.89583333,7.79166667 C3.50483333,7.79166667 3.1875,8.109 3.1875,8.5 C3.1875,8.891 3.50483333,9.20833333 3.89583333,9.20833333 L13.1041667,9.20833333 C13.4951667,9.20833333 13.8125,8.891 13.8125,8.5 C13.8125,8.109 13.4951667,7.79166667 13.1041667,7.79166667 Z" id="Path"></path>
                <path d="M8.5,10.625 L3.89583333,10.625 C3.50483333,10.625 3.1875,10.9423333 3.1875,11.3333333 C3.1875,11.7243333 3.50483333,12.0416667 3.89583333,12.0416667 L8.5,12.0416667 C8.891,12.0416667 9.20833333,11.7243333 9.20833333,11.3333333 C9.20833333,10.9423333 8.891,10.625 8.5,10.625 Z" id="Path"></path>
            </g>
        </g>
    </g>
</svg>