<?xml version="1.0" encoding="UTF-8"?>
<svg width="125px" height="28px" viewBox="0 0 125 28" version="1.1" xmlns="http://www.w3.org/2000/svg" xmlns:xlink="http://www.w3.org/1999/xlink">

    <g id="Page-1" stroke="none" stroke-width="1" fill="none" fill-rule="evenodd">
        <g id="onboarding---login" transform="translate(-125.000000, -82.000000)" fill="#277FA2">
            <g id="trampo-logo" transform="translate(125.000000, 82.000000)">
                <path d="M34.3820862,1.81405896 L38.8321995,1.81405896 L38.8321995,6.09410431 L41.4399093,6.09410431 L41.4399093,10.5725624 L38.8321995,10.5725624 L38.8321995,16.3548753 C38.8321995,17.2902494 39.5975057,18.0555556 40.5328798,18.0555556 L42.0068027,18.0555556 L42.0068027,21.9671202 L39.2006803,21.9671202 C36.5362812,21.9671202 34.3820862,19.8129252 34.3820862,17.1485261 L34.3820862,10.600907 L31.8310658,10.600907 L31.8310658,6.12244898 L34.3820862,6.12244898 L34.3820862,1.81405896 Z" id="svg_2"></path>
                <path d="M50.2267574,6.12244898 L51.3888889,6.12244898 L51.3888889,10.600907 L49.9716553,10.600907 C49.3480726,10.600907 48.8378685,11.1111111 48.8378685,11.7346939 L48.8378685,21.9671202 L44.5578231,21.9671202 L44.5578231,11.7913832 C44.5578231,8.64512472 47.1088435,6.12244898 50.2267574,6.12244898 Z" id="svg_3"></path>
                <path d="M80.5555556,7.42630385 C76.5306122,4.84693878 71.5136054,7.00113379 71.5136054,11.3095238 L71.5136054,21.9387755 L75.7936508,21.9387755 L75.7936508,11.7063492 C75.7936508,11.7063492 75.7936508,10.345805 77.069161,10.345805 C78.3163265,10.345805 78.3163265,11.7063492 78.3163265,11.7063492 L78.3163265,21.9387755 L82.5396825,21.9387755 L82.5396825,11.7063492 C82.5396825,11.7063492 82.5396825,10.345805 83.7868481,10.345805 C85.0623583,10.345805 85.0623583,11.7063492 85.0623583,11.7063492 L85.0623583,21.9387755 L89.3424036,21.9387755 L89.3424036,11.3095238 C89.3424036,7.02947846 84.2403628,4.79024943 80.5555556,7.42630385 Z" id="svg_5"></path>
                <path d="M116.893424,6.12244898 C112.471655,6.12244898 108.900227,9.69387755 108.900227,14.1156463 C108.900227,18.537415 112.471655,22.1088435 116.893424,22.1088435 C121.315193,22.1088435 124.886621,18.537415 124.886621,14.1156463 C124.886621,9.69387755 121.315193,6.12244898 116.893424,6.12244898 Z M116.865079,17.8854875 C114.852608,17.8854875 113.208617,16.2414966 113.208617,14.2290249 C113.208617,12.2165533 114.852608,10.5725624 116.865079,10.5725624 C118.877551,10.5725624 120.521542,12.2165533 120.521542,14.2290249 C120.521542,16.2414966 118.877551,17.8854875 116.865079,17.8854875 Z" id="svg_6" fill-rule="nonzero"></path>
                <path d="M99.8582766,6.12244898 C95.8049887,6.12244898 92.4603175,9.12698413 91.9501134,13.0385488 C91.893424,13.2369615 91.893424,13.4637188 91.893424,13.6904762 L91.893424,27.3526077 L96.2018141,27.3526077 L96.2018141,25 L96.2018141,21.1734694 L96.2018141,14.2573696 C96.2018141,12.244898 97.845805,10.600907 99.8582766,10.600907 C101.870748,10.600907 103.514739,12.244898 103.514739,14.2573696 C103.514739,16.2698413 101.870748,17.9138322 99.8582766,17.9138322 C99.4331066,17.9138322 99.0362812,17.8287982 98.6678005,17.7154195 L98.6678005,21.9671202 C99.0362812,22.0238095 99.4331066,22.0521542 99.829932,22.0521542 C104.223356,22.0521542 107.794785,18.4807256 107.794785,14.0873016 C107.794785,9.69387755 104.280045,6.12244898 99.8582766,6.12244898 Z" id="svg_7"></path>
                <path d="M68.962585,14.0022676 C68.962585,9.63718821 65.4195011,6.09410431 61.0544218,6.09410431 C56.6893424,6.09410431 53.1462585,9.63718821 53.1462585,14.0022676 C53.1462585,18.3673469 56.6893424,21.9104308 61.0544218,21.9104308 C61.5079365,21.9104308 61.9614512,21.8820862 62.414966,21.7970522 L62.414966,17.6020408 C61.9897959,17.7721088 61.5362812,17.8571429 61.0544218,17.8571429 C59.0419501,17.8571429 57.3979592,16.2131519 57.3979592,14.2006803 C57.3979592,12.1882086 59.0419501,10.5442177 61.0544218,10.5442177 C63.0668934,10.5442177 64.7108844,12.1882086 64.7108844,14.2006803 L64.7108844,21.0034014 L64.7108844,21.9387755 L68.962585,21.9387755 L68.962585,14.0306122 C68.962585,14.0306122 68.962585,14.0306122 68.962585,14.0022676 C68.962585,14.0306122 68.962585,14.0306122 68.962585,14.0022676 Z" id="svg_8"></path>
                <path d="M19.9263039,0 L3.40136054,0 C1.53061224,0 0,1.53061224 0,3.40136054 L0,19.9263039 C0,21.7970522 1.53061224,23.3276644 3.40136054,23.3276644 L19.9263039,23.3276644 C21.7970522,23.3276644 23.3276644,21.7970522 23.3276644,19.9263039 L23.3276644,3.40136054 C23.3276644,1.53061224 21.7970522,0 19.9263039,0 Z M9.69387755,3.91156463 C9.80725624,3.5430839 10.2040816,3.28798186 10.6575964,3.28798186 L12.670068,3.28798186 C13.1235828,3.28798186 13.5204082,3.5430839 13.6337868,3.91156463 L14.7959184,7.62471655 L8.53174603,7.62471655 L9.69387755,3.91156463 Z M7.79478458,9.97732426 L15.5328798,9.97732426 L16.7800454,13.9739229 L6.57596372,13.9739229 L7.79478458,9.97732426 Z M18.6507937,19.2460317 C18.6507937,19.6995465 18.1972789,20.0680272 17.6587302,20.0680272 L5.66893424,20.0680272 C5.13038549,20.0680272 4.67687075,19.6995465 4.67687075,19.2460317 L4.67687075,16.978458 C4.67687075,16.5249433 5.13038549,16.1564626 5.66893424,16.1564626 L17.6587302,16.1564626 C18.1972789,16.1564626 18.6507937,16.5249433 18.6507937,16.978458 L18.6507937,19.2460317 Z" id="svg_9" fill-rule="nonzero"></path>
            </g>
        </g>
    </g>
</svg>