<?xml version="1.0" encoding="UTF-8"?>
<svg width="20px" height="20px" viewBox="0 0 20 20" version="1.1" xmlns="http://www.w3.org/2000/svg" xmlns:xlink="http://www.w3.org/1999/xlink">
    <!-- Generator: Sketch 52.5 (67469) - http://www.bohemiancoding.com/sketch -->
    <title>calendar (1)</title>
    <desc>Created with Sketch.</desc>
    <g id="Page-1" stroke="none" stroke-width="1" fill="none" fill-rule="evenodd">
        <g id="worker---0.main" transform="translate(-138.000000, -613.000000)" fill="#BABABA">
            <g id="Group-Copy" transform="translate(0.000000, 597.000000)">
                <g id="Group-2">
                    <g id="calendar-(1)" transform="translate(138.000000, 16.000000)">
                        <circle id="Oval" cx="15.078125" cy="8.203125" r="1"></circle>
                        <path d="M16.875,1.5625 L15.859375,1.5625 L15.859375,0.78125 C15.859375,0.349765625 15.5096094,0 15.078125,0 C14.6466406,0 14.296875,0.349765625 14.296875,0.78125 L14.296875,1.5625 L10.7421875,1.5625 L10.7421875,0.78125 C10.7421875,0.349765625 10.3924219,0 9.9609375,0 C9.52945312,0 9.1796875,0.349765625 9.1796875,0.78125 L9.1796875,1.5625 L5.6640625,1.5625 L5.6640625,0.78125 C5.6640625,0.349765625 5.31429688,0 4.8828125,0 C4.45132812,0 4.1015625,0.349765625 4.1015625,0.78125 L4.1015625,1.5625 L3.125,1.5625 C1.401875,1.5625 0,2.964375 0,4.6875 L0,16.875 C0,18.598125 1.401875,20 3.125,20 L9.1015625,20 C9.53304688,20 9.8828125,19.6502344 9.8828125,19.21875 C9.8828125,18.7872656 9.53304688,18.4375 9.1015625,18.4375 L3.125,18.4375 C2.2634375,18.4375 1.5625,17.7365625 1.5625,16.875 L1.5625,4.6875 C1.5625,3.8259375 2.2634375,3.125 3.125,3.125 L4.1015625,3.125 L4.1015625,3.90625 C4.1015625,4.33773438 4.45132812,4.6875 4.8828125,4.6875 C5.31429688,4.6875 5.6640625,4.33773438 5.6640625,3.90625 L5.6640625,3.125 L9.1796875,3.125 L9.1796875,3.90625 C9.1796875,4.33773438 9.52945312,4.6875 9.9609375,4.6875 C10.3924219,4.6875 10.7421875,4.33773438 10.7421875,3.90625 L10.7421875,3.125 L14.296875,3.125 L14.296875,3.90625 C14.296875,4.33773438 14.6466406,4.6875 15.078125,4.6875 C15.5096094,4.6875 15.859375,4.33773438 15.859375,3.90625 L15.859375,3.125 L16.875,3.125 C17.7365625,3.125 18.4375,3.8259375 18.4375,4.6875 L18.4375,9.140625 C18.4375,9.57210938 18.7872656,9.921875 19.21875,9.921875 C19.6502344,9.921875 20,9.57210938 20,9.140625 L20,4.6875 C20,2.964375 18.598125,1.5625 16.875,1.5625 Z" id="Path"></path>
                        <path d="M15.2734375,10.546875 C12.6671875,10.546875 10.546875,12.6671875 10.546875,15.2734375 C10.546875,17.8796875 12.6671875,20 15.2734375,20 C17.8796875,20 20,17.8796875 20,15.2734375 C20,12.6671875 17.8796875,10.546875 15.2734375,10.546875 Z M15.2734375,18.4375 C13.5287891,18.4375 12.109375,17.018125 12.109375,15.2734375 C12.109375,13.52875 13.5287891,12.109375 15.2734375,12.109375 C17.0180859,12.109375 18.4375,13.52875 18.4375,15.2734375 C18.4375,17.018125 17.0180859,18.4375 15.2734375,18.4375 Z" id="Shape" fill-rule="nonzero"></path>
                        <path d="M16.40625,14.4921875 L16.0546875,14.4921875 L16.0546875,13.671875 C16.0546875,13.2403906 15.7049219,12.890625 15.2734375,12.890625 C14.8419531,12.890625 14.4921875,13.2403906 14.4921875,13.671875 L14.4921875,15.2734375 C14.4921875,15.7049219 14.8419531,16.0546875 15.2734375,16.0546875 L16.40625,16.0546875 C16.8377344,16.0546875 17.1875,15.7049219 17.1875,15.2734375 C17.1875,14.8419531 16.8377344,14.4921875 16.40625,14.4921875 Z" id="Path"></path>
                        <circle id="Oval" cx="11.6796875" cy="8.203125" r="1"></circle>
                        <circle id="Oval" cx="8.28125" cy="11.6015625" r="1"></circle>
                        <circle id="Oval" cx="4.8828125" cy="8.203125" r="1"></circle>
                        <circle id="Oval" cx="4.8828125" cy="11.6015625" r="1"></circle>
                        <circle id="Oval" cx="4.8828125" cy="15" r="1"></circle>
                        <circle id="Oval" cx="8.28125" cy="15" r="1"></circle>
                        <circle id="Oval" cx="8.28125" cy="8.203125" r="1"></circle>
                    </g>
                </g>
            </g>
        </g>
    </g>
</svg>