<?xml version="1.0" encoding="UTF-8"?>
<svg width="20px" height="19px" viewBox="0 0 20 19" version="1.1" xmlns="http://www.w3.org/2000/svg" xmlns:xlink="http://www.w3.org/1999/xlink">
    <!-- Generator: Sketch 52.5 (67469) - http://www.bohemiancoding.com/sketch -->
    <title>052-newspaper</title>
    <desc>Created with Sketch.</desc>
    <g id="Page-1" stroke="none" stroke-width="1" fill="none" fill-rule="evenodd">
        <g id="worker---0.main" transform="translate(-227.000000, -615.000000)" fill="#BABABA" fill-rule="nonzero">
            <g id="Group-Copy" transform="translate(0.000000, 597.000000)">
                <g id="Group-2">
                    <g id="052-newspaper" transform="translate(227.000000, 18.000000)">
                        <path d="M13.7120313,4.97664063 L8.74503906,4.97664063 C8.30726563,4.97664063 7.95242188,5.33144531 7.95242188,5.76925781 C7.95242188,6.20703125 8.30722656,6.561875 8.74503906,6.561875 L13.7120313,6.561875 C14.1500781,6.561875 14.5046484,6.20707031 14.5046484,5.76925781 C14.5046094,5.33144531 14.1498047,4.97664063 13.7120313,4.97664063 Z" id="Shape"></path>
                        <path d="M15.6142578,8.80753906 L8.74503906,8.80753906 C8.30726562,8.80753906 7.95242187,9.16234375 7.95242187,9.60015625 C7.95242187,10.0379297 8.30722656,10.3927734 8.74503906,10.3927734 L15.6142578,10.3927734 C16.0520313,10.3927734 16.406875,10.0379687 16.406875,9.60015625 C16.406875,9.16234375 16.0520313,8.80753906 15.6142578,8.80753906 Z" id="Shape"></path>
                        <path d="M19.2073828,0.0096484375 L5.17832031,0.0096484375 C4.74054687,0.0096484375 4.38570313,0.364453125 4.38570313,0.802265625 L4.38570313,8.27914062 L2.98546875,8.27914062 C1.33921875,8.27914062 0,9.61863281 0,11.2646094 L0,15.6767578 C0,17.3230078 1.33921875,18.6622266 2.98546875,18.6622266 C3.12019531,18.6622266 3.25285156,18.6532422 3.38257812,18.6358203 L16.4597266,18.6358203 C18.4116406,18.6358203 20,17.0476953 20,15.0955469 L20,0.802265625 C20,0.364453125 19.6451953,0.0096484375 19.2073828,0.0096484375 Z M4.38574219,15.6767578 C4.38574219,16.3560156 3.89933594,16.9240625 3.2565625,17.0505859 L2.98550781,17.0505859 L2.98550781,17.0769922 C2.21324219,17.0769922 1.58523438,16.4487109 1.58523438,15.6767187 L1.58523438,11.2646094 C1.58523438,10.4926172 2.21351563,9.86433594 2.98550781,9.86433594 L4.38578125,9.86433594 L4.38578125,15.6767578 L4.38574219,15.6767578 Z M18.4148047,15.0955078 C18.4148047,16.1552344 17.5196875,17.0505859 16.4597266,17.0505859 L5.63566406,17.0505859 C5.84992188,16.6392187 5.9709375,16.1718359 5.9709375,15.6767578 L5.9709375,1.59484375 L18.4148047,1.59484375 L18.4148047,15.0955078 Z" id="Shape"></path>
                        <path d="M13.7120313,12.4009375 L8.74503906,12.4009375 C8.30726563,12.4009375 7.95242188,12.7557422 7.95242188,13.1935547 C7.95242188,13.6313281 8.30722656,13.9861719 8.74503906,13.9861719 L13.7120313,13.9861719 C14.1500781,13.9861719 14.5046484,13.6313672 14.5046484,13.1935547 C14.5046094,12.7557422 14.1498047,12.4009375 13.7120313,12.4009375 Z" id="Shape"></path>
                    </g>
                </g>
            </g>
        </g>
    </g>
</svg>